<svg width="21" height="21" viewBox="0 0 21 20" fill="none" xmlns="http://www.w3.org/2000/svg">
    <g clip-path="url(#clip0_277_12903)">
    <path d="M13.1612 3.79692L16.6899 7.31933M18.6077 5.39257C19.0741 4.92711 19.3362 4.29576 19.3363 3.63741C19.3364 2.97906 19.0744 2.34764 18.6081 1.88206C18.1418 1.41648 17.5094 1.15487 16.8498 1.15479C16.1903 1.1547 15.5578 1.41615 15.0914 1.88162L3.31787 13.6368C3.11304 13.8406 2.96157 14.0916 2.87678 14.3677L1.71143 18.2C1.68863 18.2762 1.68691 18.3571 1.70645 18.4341C1.72599 18.5112 1.76605 18.5815 1.8224 18.6377C1.87875 18.6939 1.94928 18.7337 2.02651 18.7531C2.10373 18.7725 2.18477 18.7706 2.26102 18.7478L6.10113 17.5854C6.3774 17.5015 6.62882 17.3512 6.83333 17.1477L18.6077 5.39257Z" stroke="currentColor" stroke-width="2.5" stroke-linecap="round" stroke-linejoin="round"/>
    </g>
    <defs>
    <clipPath id="clip0_277_12903">
        <rect width="20" height="20" fill="white" transform="translate(0.5)"/>
    </clipPath>
    </defs>
</svg>
